# xmcd CD database file
#
# Track frame offsets:
#	150
#	14107
#	29820
#	42102
#	55552
#	69740
#	84015
#	96027
#	109830
#	123927
#	138917
#	152565
#
# Disc length: 2213 seconds
#
# Revision: 2
# Processed by: cddbd v1.4PL0 Copyright (c) Steve Scherf et al.
# Submitted via: CDex 1.40Release
#
DISCID=9608a30c
DTITLE=Louis Armstrong - Louis Armstrong Sings The Blues
DYEAR=1993
DGENRE=Jazz
TTITLE0=I Gotta Right To Sing The Blues
TTITLE1=Basin Street Blues
TTITLE2=St. Louis Blues
TTITLE3=The Blues Are Brewin'
TTITLE4=Rockin' Chair
TTITLE5=Where The Blues Were Born In New Orleans
TTITLE6=Blues For Yesterday
TTITLE7=Jack Armstrong Blues
TTITLE8=Blues In The South
TTITLE9=Back O'Town Blues
TTITLE10=Fifty-Fifty Blues
TTITLE11=Do You Know What It Means To Miss New Orleans
EXTD=YEAR: 1993 ID3G: 8
EXTT0=
EXTT1=
EXTT2=
EXTT3=
EXTT4=
EXTT5=
EXTT6=
EXTT7=
EXTT8=
EXTT9=
EXTT10=
EXTT11=
PLAYORDER=
